<?xml version="1.0" encoding="UTF-8" standalone="no"?>
<svg width="40px" height="40px" viewBox="0 0 40 40" version="1.1" xmlns="http://www.w3.org/2000/svg" xmlns:xlink="http://www.w3.org/1999/xlink">
    <!-- Generator: Sketch 39 (31667) - http://www.bohemiancoding.com/sketch -->
    <title>F_icon</title>
    <desc>Created with Sketch.</desc>
    <defs></defs>
    <g id="Page-1" stroke="none" stroke-width="1" fill="none" fill-rule="evenodd">
        <g id="Home" transform="translate(-1340.000000, -20.000000)" fill="#FFFFFF">
            <g id="F_icon" transform="translate(1340.000000, 20.000000)">
                <path d="M37.616259,39.7968498 C38.8202211,39.7968498 39.7965432,38.8205276 39.7965432,37.616259 L39.7965432,2.47080784 C39.7965432,1.26638593 38.8203744,0.29037037 37.616259,0.29037037 L2.47080784,0.29037037 C1.26638593,0.29037037 0.29037037,1.26638593 0.29037037,2.47080784 L0.29037037,37.616259 C0.29037037,38.8203744 1.26623264,39.7968498 2.47080784,39.7968498 L37.616259,39.7968498 Z M27.5490578,39.7968498 L27.5490578,24.4977637 L32.684215,24.4977637 L33.4531319,18.5354384 L27.5490578,18.5354384 L27.5490578,14.7288704 C27.5490578,13.0026396 28.0284046,11.8262703 30.5037775,11.8262703 L33.660997,11.8248907 L33.660997,6.49213911 C33.1149679,6.4194783 31.2408095,6.25714118 29.060372,6.25714118 C24.5083409,6.25714118 21.3918973,9.03572733 21.3918973,14.1383864 L21.3918973,18.5354384 L16.243557,18.5354384 L16.243557,24.4977637 L21.3918973,24.4977637 L21.3918973,39.7968498 L27.5490578,39.7968498 Z" id="Combined-Shape"></path>
            </g>
        </g>
    </g>
</svg>