<?xml version="1.0" encoding="UTF-8" standalone="no"?>
<svg width="40px" height="39px" viewBox="0 0 40 39" version="1.1" xmlns="http://www.w3.org/2000/svg" xmlns:xlink="http://www.w3.org/1999/xlink">
    <!-- Generator: Sketch 39 (31667) - http://www.bohemiancoding.com/sketch -->
    <title>curved-lizard</title>
    <desc>Created with Sketch.</desc>
    <defs></defs>
    <g id="Page-1" stroke="none" stroke-width="1" fill="none" fill-rule="evenodd">
        <g id="Home" transform="translate(-20.000000, -20.000000)" fill="#FFFFFF">
            <g id="curved-lizard" transform="translate(20.000000, 20.000000)">
                <path d="M39.0624343,22.5702165 C38.8556879,22.628138 38.7006078,22.7697329 38.6099481,22.9466656 L37.1011462,23.369988 L38.1014088,22.3404803 C38.2992192,22.3456794 38.4965422,22.27541 38.6462607,22.122767 C38.9310752,21.8295039 38.923439,21.361989 38.6308259,21.0795303 C38.3391875,20.7948783 37.8711039,20.8006461 37.587508,21.0928531 C37.4381956,21.2463085 37.3742627,21.4470434 37.3848234,21.6454224 L36.3079549,22.7547042 L36.7173859,21.1062571 C36.8905817,21.0107232 37.0271399,20.8502002 37.0777501,20.6428039 C37.175315,20.2473456 36.9361553,19.847338 36.5406157,19.7484734 C36.1454011,19.65034 35.7461246,19.8910432 35.6457978,20.286339 C35.5952688,20.4938165 35.6405174,20.6994256 35.7486429,20.8646603 L35.2076091,23.0383814 C35.2031411,23.0384626 34.1092943,23.0542224 33.9975944,23.0558472 C33.9533206,22.9812722 31.3622886,18.7727442 31.3381614,18.7334258 C31.1392949,17.497984 30.7062242,16.3794413 30.0638075,15.5455507 C26.7797485,11.2862499 28.2075579,6.87316879 28.2075579,6.87316879 L28.4548412,6.19240854 C28.8009078,5.24340601 28.4533789,4.18026647 27.6131518,3.61835494 L23.12249,0.611880481 C22.4850287,0.185389873 21.672422,0.123081626 20.9762268,0.446158416 C20.2805191,0.770128806 19.8057741,1.43342325 19.7212884,2.19533856 L19.1320002,7.56887651 C19.0216813,8.57311973 19.6119443,9.52325957 20.5615155,9.86916376 C20.5615155,9.86916376 22.2884369,10.3740474 22.7958389,10.6838827 C23.7126718,11.2437633 25.6013347,13.6784966 24.2996041,16.6080403 C23.8445996,16.6257498 19.675796,16.7855416 19.6745775,16.7855416 C19.6455761,16.6404536 19.6204741,16.476275 19.6068264,16.3864277 L20.4887278,13.8326019 C20.6956366,13.7525841 20.8710258,13.5941733 20.9489314,13.3676865 C21.0894702,12.9579306 20.8723256,12.5125119 20.4637882,12.3721356 C20.0568756,12.230297 19.6081262,12.4475229 19.4662876,12.8564665 C19.388382,13.0840906 19.4284315,13.3168326 19.5445182,13.508794 L18.9695276,15.1675581 L18.6587175,13.5834502 C18.797794,13.409117 18.869282,13.1841737 18.8239521,12.9489134 C18.7406037,12.5235601 18.3270296,12.2479253 17.9043571,12.33103 C17.4791663,12.4136473 17.2010132,12.8265715 17.2840367,13.2511937 C17.3305851,13.4859666 17.4830657,13.6666361 17.6781953,13.7748429 L18.0123202,15.478287 L16.7612811,14.0548644 C16.7949129,13.8345516 16.7429217,13.6031906 16.5842672,13.422521 C16.2979904,13.0978195 15.8037487,13.0654062 15.4788847,13.3500582 C15.1537771,13.636335 15.1221761,14.1299268 15.4071531,14.4563343 C15.5658888,14.6364352 15.7882326,14.7171028 16.0106576,14.712716 L17.6649537,16.5965048 C17.4162082,19.1561795 18.9384141,19.1989911 21.7305872,19.9534326 C20.14916,21.4810001 17.8614644,23.0409809 14.7853704,23.5741348 C15.0302979,21.9217071 15.2742505,21.302199 14.4618874,20.2101394 C14.3795951,20.1445817 14.1490464,19.905422 13.8635008,19.7275145 C13.1542266,19.3314062 12.836024,19.4173543 11.1580069,19.4976157 L10.0527869,17.3507026 C10.1371914,17.1459059 10.1423093,16.9104018 10.0330465,16.6971565 C9.83426124,16.3122589 9.36073481,16.1628654 8.97713698,16.3612444 C8.59475768,16.5574301 8.44122106,17.0319314 8.63895023,17.4172352 C8.74926914,17.6311304 8.9485418,17.7624082 9.16682375,17.8107438 L9.97211926,19.3733242 L8.60751178,18.503852 C8.57777929,18.2827268 8.46461712,18.0757367 8.26306984,17.9463272 C7.89896872,17.713179 7.4138255,17.8215483 7.18230203,18.1858119 C6.94826023,18.5498317 7.05606081,19.0370871 7.41894339,19.269098 C7.62333393,19.3979388 7.85859428,19.4123176 8.07167711,19.3457851 L9.51045333,20.2633491 L7.64144963,20.2029093 C7.17962123,19.6069598 6.27562361,19.9340172 6.24580989,20.6444287 C6.22753172,21.0768495 6.56449992,21.4404632 6.99627088,21.4600412 C7.23673035,21.468571 7.44753857,21.3636949 7.59823191,21.1999225 L10.2388993,21.306667 C10.3212729,21.2981372 11.8579389,21.7058622 11.9555037,21.7310455 C11.7728845,22.1085506 10.8670184,23.9703243 10.8670184,23.9703243 C6.46124857,23.9461971 -0.0298572442,22.2663115 1.52947365,12.1751376 C1.58073376,11.8518983 1.11354377,11.7317498 1.00387475,12.0424787 C-0.470726678,16.2258235 -1.88188255,24.75921 8.94025569,28.7461255 C8.94025569,28.7461255 11.4920505,29.521851 14.5822796,29.9419239 C14.6667654,30.0357518 14.7498701,30.1273864 14.8462976,30.2346996 C14.9104743,30.3057001 16.6692403,32.2513909 16.7334983,32.3223102 C16.652262,32.3945292 15.8120348,33.1406035 15.5341254,33.389349 L13.1032914,34.4202378 C12.9045062,34.3225917 12.6689209,34.3018765 12.4492579,34.3973291 C12.0524998,34.5710936 11.871749,35.0334094 12.0460009,35.4285428 C12.2162722,35.8227826 12.6807002,36.0074327 13.0772958,35.8346431 C13.2968776,35.7382968 13.4402596,35.5495849 13.5038677,35.335121 L15.11389,34.6326707 L14.1593634,35.936026 C13.938157,35.9509735 13.7239368,36.0512191 13.5820982,36.2441553 C13.3244979,36.5933902 13.4024848,37.0845449 13.7496075,37.3382459 C14.099736,37.5950339 14.5911344,37.5207026 14.8472725,37.171549 C14.9879737,36.9771505 15.0179499,36.7431087 14.9655525,36.5271826 L15.9907547,35.1282934 L15.7914821,37.0114322 C15.6069132,37.137186 15.4715735,37.3316657 15.4471214,37.5708254 C15.4027663,38.0015403 15.7136577,38.3857068 16.1428291,38.4317678 C16.5736252,38.4774226 16.9585228,38.1657189 17.0053149,37.7348415 C17.0299295,37.4953569 16.9388636,37.2779685 16.7854083,37.1174456 L17.0469892,34.6404694 C17.0469892,34.6404694 17.5957404,34.4006598 18.3628549,34.0657225 C18.5676516,33.9705948 18.8055115,33.8067412 18.9886181,33.6058438 C19.1747305,33.4915443 19.4813976,32.8145209 19.4723803,32.8327179 C19.8716568,31.7397646 19.3890319,30.984267 19.0120954,30.2879906 C25.8374886,30.5071661 29.4610341,27.2438225 30.803464,23.5833145 C31.1192296,23.8678853 32.187162,24.8371969 32.187162,24.8371969 C33.4612723,25.712843 33.7655835,25.4080444 36.467503,24.5776469 L38.8814399,23.908016 C39.0504926,24.01078 39.257239,24.0497734 39.4627669,23.9926643 C39.8544071,23.8818579 40.0834935,23.4732393 39.9716311,23.0825739 C39.8635056,22.6911774 39.4550494,22.4615224 39.0624343,22.5702165 Z" id="Shape"></path>
            </g>
        </g>
    </g>
</svg>